<svg version="1.1" id="Layer_1" xmlns="http://www.w3.org/2000/svg" xmlns:xlink="http://www.w3.org/1999/xlink" x="0px" y="0px"
	 width="100%" viewBox="0 0 944 1024" enable-background="new 0 0 944 1024" xml:space="preserve">
<path fill="#000000" opacity="1.000000" stroke="none" 
	d="
M699.004883,928.265381 
	C687.563354,930.393188 680.733337,925.159180 673.690247,917.054199 
	C607.130066,840.459167 540.121582,764.253845 473.264832,687.916443 
	C438.793152,648.556396 404.294373,609.219482 370.016388,569.691284 
	C365.949707,565.001770 361.882660,562.993591 355.571686,563.088928 
	C330.246887,563.471680 304.912933,563.249207 279.582367,563.252991 
	C272.345276,563.254089 272.329956,563.258179 272.329407,570.385925 
	C272.322571,660.709412 272.320648,751.032837 272.316864,841.356323 
	C272.316528,849.316895 272.314453,849.320007 264.530365,849.322021 
	C252.698334,849.325073 240.863724,849.183044 229.035629,849.398987 
	C224.844818,849.475525 223.582550,847.934692 223.603363,843.883301 
	C223.730011,819.219971 223.661667,794.555664 223.661804,769.891724 
	C223.662521,639.405945 223.668945,508.920197 223.629547,378.434448 
	C223.628815,376.038269 224.378998,373.440430 222.601517,371.187469 
	C219.948425,371.445862 219.173264,373.730103 217.995316,375.394684 
	C190.566635,414.154877 163.138855,452.915985 135.861343,491.782501 
	C133.329483,495.390076 131.534576,496.329010 127.659927,493.447510 
	C117.636703,485.993500 107.376976,478.847687 97.044273,471.825104 
	C93.448051,469.380951 92.635612,467.554108 95.436455,463.608826 
	C134.108810,409.135590 172.608948,354.540100 211.150391,299.973938 
	C251.038071,243.501785 290.923737,187.028244 330.812469,130.556839 
	C348.306305,105.790390 365.879578,81.079391 383.220123,56.206116 
	C385.737976,52.594551 387.672150,52.763973 390.824463,55.042107 
	C401.357758,62.654274 411.941650,70.202614 422.674957,77.528076 
	C425.991364,79.791527 425.507385,81.576187 423.517426,84.379082 
	C404.998779,110.463104 386.584564,136.621231 368.136353,162.755280 
	C361.795105,171.738388 355.429260,180.704224 349.112183,189.704254 
	C348.179565,191.032974 346.946350,192.257034 346.894012,194.092209 
	C348.278809,196.162155 350.437775,195.633987 352.339203,195.634842 
	C420.665070,195.665939 488.990967,195.628815 557.316650,195.751785 
	C561.726379,195.759720 563.411438,193.931107 563.492615,189.971191 
	C563.591553,185.140625 563.573181,180.307251 563.573853,175.475098 
	C563.577576,148.311401 563.595093,121.147682 563.554565,93.984055 
	C563.542908,86.166016 563.479309,78.343666 563.192261,70.532372 
	C563.057251,66.857979 564.337097,65.552795 568.065186,65.602722 
	C580.728210,65.772301 593.399048,65.848785 606.058044,65.566269 
	C610.839050,65.459579 612.354553,66.955704 612.334534,71.785240 
	C612.172546,110.780258 612.247986,149.776260 612.251770,188.771973 
	C612.252441,195.647980 612.254333,195.665100 619.091309,195.665421 
	C684.250854,195.668396 749.410400,195.663620 814.569946,195.665695 
	C822.049988,195.665939 822.082275,195.678940 822.097900,203.053726 
	C822.122559,214.719009 821.866638,226.391098 822.201782,238.046707 
	C822.351013,243.234436 820.495056,244.464142 815.554504,244.453140 
	C750.228699,244.307724 684.902344,244.359497 619.576172,244.360809 
	C612.255554,244.360962 612.239014,244.357620 612.238464,251.715164 
	C612.235229,292.377380 612.297607,333.039764 612.161987,373.701508 
	C612.147217,378.133789 613.224976,379.803192 617.995300,379.788727 
	C690.319092,379.569427 762.643616,379.564331 834.967468,379.352661 
	C839.285461,379.340027 840.012451,381.272583 840.005188,384.764893 
	C839.978760,397.429688 839.901306,410.097351 840.145630,422.758087 
	C840.232361,427.249603 838.459045,428.398621 834.232483,428.381531 
	C802.903137,428.254730 771.572998,428.322083 740.243103,428.333771 
	C732.359436,428.336700 732.360046,428.345581 732.358643,436.310577 
	C732.354309,460.307953 732.448425,484.306091 732.255066,508.301941 
	C732.219604,512.703064 733.580322,514.079529 737.949890,514.028992 
	C754.778992,513.834412 771.611938,513.967529 788.443420,513.968445 
	C797.081360,513.968872 797.085571,513.959229 797.098755,522.346313 
	C797.117004,534.011658 796.984558,545.679749 797.213806,557.340881 
	C797.304077,561.931580 795.641785,563.381348 791.082458,563.323669 
	C773.920410,563.106689 756.753967,563.236633 739.589172,563.243347 
	C732.377197,563.246216 732.361877,563.253845 732.361633,570.386108 
	C732.357910,686.706726 732.362427,803.027283 732.350220,919.347900 
	C732.349182,929.160583 733.073669,928.223938 723.484314,928.261902 
	C715.490845,928.293579 707.497131,928.266113 699.004883,928.265381 
M563.114624,360.584839 
	C563.269348,354.591125 563.573608,348.596954 563.553528,342.603821 
	C563.452271,312.446014 563.264648,282.288452 563.111450,252.130829 
	C563.072266,244.408859 563.051392,244.368973 555.309998,244.369141 
	C482.152954,244.370651 408.995911,244.377319 335.838867,244.380203 
	C328.673157,244.380478 321.506622,244.425446 314.342194,244.325348 
	C311.813354,244.290024 309.988190,244.957291 308.445801,247.169022 
	C297.201263,263.293243 285.862000,279.351654 274.492493,295.388214 
	C272.865723,297.682770 272.282135,300.084259 272.289307,302.862976 
	C272.350708,326.693024 272.433075,350.524139 272.237274,374.352722 
	C272.197632,379.175995 273.752350,380.819519 278.570160,380.686951 
	C292.388458,380.306824 306.219666,380.328857 320.041901,380.210358 
	C362.866486,379.843201 405.695435,379.993500 448.522705,379.927399 
	C484.517456,379.871826 520.512207,379.799042 556.506958,379.722504 
	C562.794922,379.709137 563.665894,378.814606 563.519348,372.518921 
	C563.434204,368.857300 563.251892,365.197937 563.114624,360.584839 
M498.864258,642.652588 
	C509.162964,654.441956 519.452087,666.239685 529.762085,678.019226 
	C576.048889,730.903442 622.337524,783.786133 668.638733,836.657776 
	C673.189087,841.853760 677.829468,846.970947 682.521790,852.229736 
	C684.155823,850.327576 683.644226,848.590271 683.644714,847.005249 
	C683.671753,754.554260 683.629456,662.103210 683.768616,569.652466 
	C683.776367,564.534058 682.158386,563.146729 677.199097,563.154419 
	C597.241699,563.279053 517.284058,563.235718 437.326447,563.271912 
	C435.447723,563.272766 433.278046,562.609436 431.205170,565.418579 
	C453.531525,590.894897 475.971619,616.500854 498.864258,642.652588 
M480.500000,513.961609 
	C545.969360,513.959229 611.438660,513.961060 676.908020,513.948303 
	C683.648193,513.946960 683.665833,513.906555 683.667358,507.450958 
	C683.672974,483.295563 683.672668,459.140198 683.659302,434.984802 
	C683.655701,428.521057 683.515259,428.319000 676.832458,428.396149 
	C658.681152,428.605682 640.528625,428.573151 622.376038,428.781372 
	C582.899475,429.234253 543.415283,429.029022 503.934204,429.076691 
	C428.969635,429.167267 354.005066,429.243103 279.040497,429.336304 
	C272.357513,429.344604 272.330536,429.395660 272.328918,435.992950 
	C272.323303,459.148804 272.326416,482.304626 272.329956,505.460480 
	C272.331268,513.949646 272.336029,513.949097 280.592926,513.949585 
	C346.895294,513.953430 413.197632,513.957458 480.500000,513.961609 
z"/>
</svg>